<svg xmlns="http://www.w3.org/2000/svg" viewBox="120 230 790 300" width="140">
  <g transform="matrix(4.5216 0 0 4.5216 512 384)">
    <g transform="matrix(1 0 0 1 -41.76 0)">
      <path
        fill="#60A5FA"
        transform="translate(-99.928,-96.1684)"
        d="M 131.608 69.9059 C 128.008 69.0419 124.336 70.6979 122.608 74.0099 L 103.744 110.5139 C 102.808 112.3139 101.08 112.5299 100.432 112.5299 C 99.784 112.5299 98.056 112.3139 97.12 110.5139 L 78.4 74.2979 C 76.528 70.6979 72.64 68.9699 68.68 69.9059 C 64.792 70.8419 62.128 74.2259 62.128 78.2579 L 62.128 121.1699 L 72.28 121.1699 L 72.28 84.6659 L 88.12 115.1939 C 90.496 119.8019 95.248 122.6819 100.432 122.6819 C 105.616 122.6819 110.368 119.8019 112.744 115.1939 L 127.576 86.6099 L 127.576 121.1699 L 137.728 121.1699 L 137.728 77.6819 C 137.728 74.0099 135.208 70.7699 131.608 69.9059 Z"
      />
    </g>
    <g transform="matrix(1 0 0 1 9.396 20.0336)">
      <path
        fill="#60A5FA"
        transform="translate(-99.964,-116.2019)"
        d="M 103.528 111.0899 L 96.4 111.0899 C 95.536 111.0899 94.888 111.8099 94.888 112.6739 L 94.888 119.8019 C 94.888 120.5939 95.536 121.3139 96.4 121.3139 L 103.528 121.3139 C 104.392 121.3139 105.04 120.5939 105.04 119.8019 L 105.04 112.6739 C 105.04 111.8099 104.392 111.0899 103.528 111.0899 Z"
      />
    </g>
    <g transform="matrix(1 0 0 1 49.068 -0.1984)">
      <path
        fill="#3B82F6"
        transform="translate(-100,-95.9699)"
        d="M 128.98 70.7699 L 71.02 70.7699 C 70.228 70.7699 69.508 71.4179 69.508 72.2819 L 69.508 79.4099 C 69.508 80.2739 70.228 80.9219 71.02 80.9219 L 94.924 80.9219 L 94.924 119.6579 C 94.924 120.4499 95.572 121.1699 96.436 121.1699 L 103.564 121.1699 C 104.428 121.1699 105.076 120.4499 105.076 119.6579 L 105.076 80.9219 L 128.98 80.9219 C 129.772 80.9219 130.492 80.2739 130.492 79.4099 L 130.492 72.2819 C 130.492 71.4179 129.772 70.7699 128.98 70.7699 Z"
      />
    </g>
  </g>
</svg>
